<?xml version="1.0" encoding="UTF-8" standalone="no"?>
<!-- Generator: Adobe Illustrator 19.0.0, SVG Export Plug-In . SVG Version: 6.00 Build 0)  -->

<svg
   xmlns:dc="http://purl.org/dc/elements/1.1/"
   xmlns:cc="http://creativecommons.org/ns#"
   xmlns:rdf="http://www.w3.org/1999/02/22-rdf-syntax-ns#"
   xmlns:svg="http://www.w3.org/2000/svg"
   xmlns="http://www.w3.org/2000/svg"
   xmlns:sodipodi="http://sodipodi.sourceforge.net/DTD/sodipodi-0.dtd"
   xmlns:inkscape="http://www.inkscape.org/namespaces/inkscape"
   version="1.1"
   id="Capa_1"
   x="0px"
   y="0px"
   viewBox="0 0 510 200"
   xml:space="preserve"
   inkscape:version="0.48.5 r10040"
   width="100%"
   height="100%"
   sodipodi:docname="app-logo.svg"><metadata
   id="metadata79"><rdf:RDF><cc:Work
       rdf:about=""><dc:format>image/svg+xml</dc:format><dc:type
         rdf:resource="http://purl.org/dc/dcmitype/StillImage" /></cc:Work></rdf:RDF></metadata><defs
   id="defs77" /><sodipodi:namedview
   pagecolor="#ffffff"
   bordercolor="#666666"
   borderopacity="1"
   objecttolerance="10"
   gridtolerance="10"
   guidetolerance="10"
   inkscape:pageopacity="0"
   inkscape:pageshadow="2"
   inkscape:window-width="1366"
   inkscape:window-height="706"
   id="namedview75"
   showgrid="false"
   inkscape:zoom="2.405"
   inkscape:cx="205.31185"
   inkscape:cy="100"
   inkscape:window-x="-8"
   inkscape:window-y="-8"
   inkscape:window-maximized="1"
   inkscape:current-layer="g27" />



<g
   id="g3012"
   transform="matrix(1.4616271,0,0,1.4616271,-36.121346,-237.75536)"><g
     style="fill:#ff6600;stroke:#ff6600;stroke-width:18.09526634"
     transform="matrix(0.14656545,0,0,0.14656545,28.740125,194.23941)"
     id="g3">
	<g
   style="fill:#ff6600;stroke:#ff6600;stroke-width:18.09526634"
   id="g5">
		<path
   style="fill:#ff6600;stroke:#ff6600;stroke-width:18.09526634"
   inkscape:connector-curvature="0"
   id="path7"
   d="m 476.963,209.153 c -9.241,-2.723 -16.248,-9.539 -19.225,-18.701 -2.977,-9.162 -1.314,-18.796 4.562,-26.43 13.534,-17.583 13.851,-40.544 0.809,-58.495 -13.042,-17.951 -34.978,-24.745 -55.882,-17.306 -9.076,3.23 -18.751,1.834 -26.546,-3.829 C 372.887,78.729 368.57,69.959 368.836,60.329 369.45,38.149 356.211,19.386 335.108,12.53 314.007,5.674 292.267,13.071 279.726,31.376 274.281,39.324 265.633,43.881 256,43.881 c -9.634,0 -18.281,-4.558 -23.726,-12.506 -12.541,-18.305 -34.28,-25.701 -55.382,-18.846 -21.102,6.857 -34.342,25.619 -33.728,47.8 0.267,9.629 -4.05,18.4 -11.844,24.062 -7.794,5.663 -17.469,7.058 -26.546,3.829 -20.905,-7.437 -42.84,-0.645 -55.882,17.306 -13.042,17.951 -12.724,40.912 0.809,58.495 5.876,7.635 7.539,17.268 4.562,26.43 -2.977,9.162 -9.984,15.978 -19.225,18.701 C 13.753,215.423 0,233.812 0,256 c 0,22.189 13.752,40.578 35.037,46.849 9.241,2.723 16.248,9.538 19.225,18.701 2.977,9.163 1.315,18.795 -4.561,26.429 -13.534,17.583 -13.852,40.544 -0.81,58.495 13.043,17.951 34.977,24.742 55.883,17.306 9.077,-3.229 18.752,-1.834 26.545,3.829 7.794,5.662 12.111,14.433 11.845,24.063 -0.614,22.18 12.626,40.942 33.728,47.799 5.228,1.699 10.494,2.523 15.65,2.522 15.658,0 30.298,-7.598 39.732,-21.368 5.445,-7.947 14.093,-12.505 23.726,-12.505 9.634,0 18.282,4.558 23.727,12.505 12.541,18.305 34.279,25.702 55.382,18.846 21.102,-6.857 34.342,-25.619 33.728,-47.799 -0.266,-9.63 4.051,-18.401 11.845,-24.064 7.794,-5.661 17.467,-7.059 26.546,-3.828 20.907,7.437 42.84,0.645 55.882,-17.306 13.042,-17.951 12.725,-40.912 -0.81,-58.495 -5.876,-7.634 -7.538,-17.268 -4.561,-26.43 2.977,-9.162 9.984,-15.978 19.225,-18.701 C 498.248,296.578 512,278.19 512,256 c 0,-22.188 -13.753,-40.577 -35.037,-46.847 z m -5.674,74.436 c -15.462,4.555 -27.666,16.427 -32.647,31.756 -4.981,15.329 -2.085,32.107 7.747,44.881 9.673,12.567 6.588,26.034 0.476,34.447 -6.111,8.413 -17.967,15.507 -32.908,10.191 -15.187,-5.403 -32.037,-2.974 -45.077,6.501 -13.04,9.474 -20.559,24.75 -20.114,40.863 0.439,15.852 -9.972,24.934 -19.861,28.148 -9.892,3.214 -23.651,1.985 -32.614,-11.098 -9.11,-13.297 -24.172,-21.236 -40.29,-21.236 -16.118,0 -31.18,7.939 -40.29,21.236 -8.963,13.082 -22.722,14.312 -32.614,11.098 -9.889,-3.213 -20.301,-12.295 -19.862,-28.148 0.446,-16.113 -7.073,-31.388 -20.113,-40.862 -8.462,-6.149 -18.529,-9.33 -28.704,-9.33 -5.505,0 -11.042,0.931 -16.374,2.828 -14.941,5.316 -26.796,-1.779 -32.908,-10.191 -6.112,-8.413 -9.197,-21.879 0.477,-34.447 9.831,-12.773 12.727,-29.551 7.746,-44.881 C 68.378,300.016 56.174,288.144 40.712,283.59 25.499,279.108 20.079,266.4 20.079,256.002 c 0,-10.398 5.42,-23.106 20.632,-27.588 15.462,-4.555 27.666,-16.426 32.647,-31.755 4.981,-15.329 2.085,-32.108 -7.746,-44.881 -9.673,-12.567 -6.589,-26.034 -0.476,-34.447 6.111,-8.413 17.967,-15.506 32.908,-10.191 15.185,5.403 32.037,2.973 45.078,-6.502 13.04,-9.475 20.559,-24.75 20.113,-40.862 -0.439,-15.853 9.973,-24.935 19.862,-28.148 9.888,-3.212 23.65,-1.985 32.614,11.098 9.11,13.297 24.172,21.236 40.29,21.236 16.119,0 31.18,-7.939 40.29,-21.236 8.962,-13.083 22.723,-14.311 32.613,-11.098 9.89,3.213 20.301,12.295 19.862,28.149 -0.446,16.112 7.074,31.388 20.113,40.862 13.041,9.474 29.891,11.905 45.078,6.501 14.942,-5.316 26.796,1.779 32.908,10.192 6.112,8.412 9.197,21.879 -0.476,34.447 -9.831,12.773 -12.727,29.551 -7.746,44.88 4.981,15.33 17.185,27.201 32.647,31.756 15.212,4.481 20.632,17.189 20.632,27.588 0,10.399 -5.421,23.104 -20.633,27.586 z" />
	</g>
</g><g
     style="fill:#ff6600;stroke:#ff6600;stroke-width:18.09526634"
     transform="matrix(0.14656545,0,0,0.14656545,28.740125,194.23941)"
     id="g9">
	<g
   style="fill:#ff6600;stroke:#ff6600;stroke-width:18.09526634"
   id="g11">
		<path
   style="fill:#ff6600;stroke:#ff6600;stroke-width:18.09526634"
   inkscape:connector-curvature="0"
   id="path13"
   d="m 256,97.467 c -34.906,0 -68.017,11.125 -95.753,32.173 -26.831,20.361 -46.832,49.275 -56.317,81.415 -1.57,5.318 1.469,10.901 6.787,12.47 0.949,0.28 1.905,0.413 2.846,0.413 4.335,0 8.335,-2.83 9.624,-7.2 8.282,-28.061 25.754,-53.313 49.198,-71.104 24.215,-18.376 53.128,-28.089 83.615,-28.089 5.545,0 10.039,-4.495 10.039,-10.039 0,-5.545 -4.495,-10.039 -10.039,-10.039 z" />
	</g>
</g><g
     style="fill:#ff6600;stroke:#ff6600;stroke-width:18.09526634"
     transform="matrix(0.14656545,0,0,0.14656545,28.740125,194.23941)"
     id="g15">
	<g
   style="fill:#ff6600;stroke:#ff6600;stroke-width:18.09526634"
   id="g17">
		<path
   style="fill:#ff6600;stroke:#ff6600;stroke-width:18.09526634"
   inkscape:connector-curvature="0"
   id="path19"
   d="m 378.089,341.144 c -4.322,-3.474 -10.642,-2.787 -14.114,1.535 -26.451,32.906 -65.807,51.778 -107.975,51.778 -5.545,0 -10.039,4.495 -10.039,10.039 0,5.544 4.495,10.039 10.039,10.039 48.282,0 93.341,-21.606 123.624,-59.278 3.474,-4.32 2.787,-10.64 -1.535,-14.113 z" />
	</g>
</g><g
     style="fill:#ff6600;stroke:#ff6600;stroke-width:18.09526634"
     transform="matrix(0.14656545,0,0,0.14656545,28.740125,194.23941)"
     id="g21">
	<g
   style="fill:#ff6600;stroke:#ff6600;stroke-width:18.09526634"
   id="g23">
		<circle
   style="fill:#ff6600;stroke:#ff6600;stroke-width:18.09526634"
   sodipodi:ry="10.206"
   sodipodi:rx="10.206"
   sodipodi:cy="318.41101"
   sodipodi:cx="391.54001"
   d="m 401.74601,318.41101 c 0,5.63662 -4.56938,10.206 -10.206,10.206 -5.63662,0 -10.206,-4.56938 -10.206,-10.206 0,-5.63662 4.56938,-10.206 10.206,-10.206 5.63662,0 10.206,4.56938 10.206,10.206 z"
   id="circle25"
   r="10.206"
   cy="318.41101"
   cx="391.54001" />
	</g>
</g></g>
<g
   id="g27"
   transform="matrix(1.0394696,0.07765843,-0.07765843,1.0394696,-377.12646,-131.22325)">
	
<text
   xml:space="preserve"
   style="font-size:110.06584167px;font-style:normal;font-variant:normal;font-weight:normal;font-stretch:normal;text-align:end;line-height:125%;letter-spacing:0px;word-spacing:0px;writing-mode:lr-tb;text-anchor:end;fill:#000000;fill-opacity:1;stroke:#000000;stroke-width:1.16853726;font-family:Arial Rounded MT Bold;-inkscape-font-specification:Arial Rounded MT Bold"
   x="842.77002"
   y="264.66586"
   id="text3056"
   sodipodi:linespacing="125%"
   transform="matrix(0.9961011,-0.088219,0.088219,0.9961011,0,0)"><tspan
     sodipodi:role="line"
     id="tspan3058"
     x="842.77002"
     y="264.66586"
     style="font-style:normal;font-variant:normal;font-weight:normal;font-stretch:normal;fill:#000000;stroke:#000000;stroke-width:4.47806072;font-family:Candara;-inkscape-font-specification:Candara">Custom</tspan><tspan
     sodipodi:role="line"
     x="842.77002"
     y="402.24817"
     style="font-style:normal;font-variant:normal;font-weight:normal;font-stretch:normal;fill:#000000;stroke:#000000;stroke-width:4.47806072;font-family:Kristen ITC;-inkscape-font-specification:Kristen ITC"
     id="tspan3044" /></text>





</g>


<g
   id="g45"
   transform="translate(4.6742275,-135.54791)">
</g>
<g
   id="g47"
   transform="translate(4.6742275,-135.54791)">
</g>
<g
   id="g49"
   transform="translate(4.6742275,-135.54791)">
</g>
<g
   id="g51"
   transform="translate(4.6742275,-135.54791)">
</g>
<g
   id="g53"
   transform="translate(4.6742275,-135.54791)">
</g>
<g
   id="g55"
   transform="translate(4.6742275,-135.54791)">
</g>
<g
   id="g57"
   transform="translate(4.6742275,-135.54791)">
</g>
<g
   id="g59"
   transform="translate(4.6742275,-135.54791)">
</g>
<g
   id="g61"
   transform="translate(4.6742275,-135.54791)">
</g>
<g
   id="g63"
   transform="translate(4.6742275,-135.54791)">
</g>
<g
   id="g65"
   transform="translate(4.6742275,-135.54791)">
</g>
<g
   id="g67"
   transform="translate(4.6742275,-135.54791)">
</g>
<g
   id="g69"
   transform="translate(4.6742275,-135.54791)">
</g>
<g
   id="g71"
   transform="translate(4.6742275,-135.54791)">
</g>
<g
   id="g73"
   transform="translate(4.6742275,-135.54791)">
</g>
</svg>